# xmcd
#
# Track frame offsets: 
#        150
#        18894
#        36736
#        59597
#        80456
#        101517
#        119918
#        139366
#        158230
#        180100
#        195559
#        211143
#        229968
#        250226
#        268894
#        290344
#
# Disc length: 4117 seconds
#
# Revision: 0
# Processed by: cddbd v1.5.2PL0 Copyright (c) Steve Scherf et al.
# Submitted via: ExactAudioCopy v1.0b3
#
DISCID=ee101310
DTITLE=前川清 - 前川清大全集 Disc 2 TECE-3211-2
DYEAR=1900
DGENRE=Blues
TTITLE0=黄昏の匂い 
TTITLE1=SEA SIDE WOMAN BLUES  
TTITLE2=花の時・愛の時 
TTITLE3=愛と戯れの隣りに… 
TTITLE4=故郷の花のように 
TTITLE5=別れ曲でも唄って
TTITLE6=昔があるから 
TTITLE7=哀しみの終りに 
TTITLE8=時の想い
TTITLE9=あの時代にはもどれない 
TTITLE10=恋さぐり夢さぐり 
TTITLE11=せめて今夜だけは 
TTITLE12=薔薇のオルゴール 
TTITLE13=ゆれて博多で 
TTITLE14=Last Song 
TTITLE15=Love Songが聴こえない
EXTD=
EXTT0=
EXTT1=
EXTT2=
EXTT3=
EXTT4=
EXTT5=
EXTT6=
EXTT7=
EXTT8=
EXTT9=
EXTT10=
EXTT11=
EXTT12=
EXTT13=
EXTT14=
EXTT15=
PLAYORDER=
